<svg width="292" height="76" viewBox="0 0 292 76" fill="none" xmlns="http://www.w3.org/2000/svg">
<path d="M42.7741 22.1889C42.4901 19.3243 41.2708 17.099 39.1165 15.5128C36.9621 13.9266 34.0384 13.1335 30.3452 13.1335C27.8357 13.1335 25.7169 13.4886 23.9886 14.1989C22.2604 14.8854 20.9347 15.8442 20.0114 17.0753C19.1117 18.3063 18.6619 19.7031 18.6619 21.2656C18.6146 22.5677 18.8868 23.7041 19.4787 24.6747C20.0942 25.6454 20.9347 26.4858 22 27.196C23.0653 27.8826 24.2964 28.4863 25.6932 29.0071C27.09 29.5043 28.5814 29.9304 30.1676 30.2855L36.7017 31.848C39.8741 32.5582 42.786 33.5052 45.4375 34.6889C48.089 35.8726 50.3854 37.3286 52.3267 39.0568C54.268 40.785 55.7713 42.821 56.8366 45.1648C57.9257 47.5085 58.482 50.1955 58.5057 53.2259C58.482 57.6766 57.3456 61.5355 55.0966 64.8026C52.8712 68.0459 49.6515 70.5672 45.4375 72.3665C41.2472 74.142 36.1927 75.0298 30.2741 75.0298C24.4029 75.0298 19.2893 74.1302 14.9332 72.331C10.6009 70.5317 7.21544 67.8684 4.77699 64.3409C2.36222 60.7898 1.09564 56.3982 0.977273 51.1662H15.8565C16.0223 53.6046 16.7206 55.6406 17.9517 57.2741C19.2064 58.884 20.8755 60.1032 22.9588 60.9318C25.0658 61.7367 27.4451 62.1392 30.0966 62.1392C32.7008 62.1392 34.9616 61.7604 36.8793 61.0028C38.8205 60.2453 40.3239 59.1918 41.3892 57.8423C42.4545 56.4929 42.9872 54.9422 42.9872 53.1903C42.9872 51.5568 42.5019 50.1837 41.5312 49.071C40.5843 47.9583 39.1875 47.0114 37.3409 46.2301C35.518 45.4489 33.2808 44.7386 30.6293 44.0994L22.7102 42.1108C16.5786 40.6193 11.7372 38.2874 8.18608 35.1151C4.63494 31.9427 2.87121 27.6695 2.89489 22.2955C2.87121 17.892 4.04309 14.045 6.41051 10.7543C8.80161 7.46354 12.0805 4.89489 16.2472 3.04829C20.4138 1.2017 25.1487 0.278406 30.4517 0.278406C35.8494 0.278406 40.5606 1.2017 44.5852 3.04829C48.6335 4.89489 51.7822 7.46354 54.0312 10.7543C56.2803 14.045 57.4403 17.8565 57.5114 22.1889H42.7741ZM84.2248 1.27273V74H68.8484V1.27273H84.2248Z" fill="#262567"/>
<path d="M109.411 74H92.9339L118.04 1.27273H137.856L162.927 74H146.45L128.232 17.892H127.664L109.411 74ZM108.381 45.4134H147.302V57.4162H108.381V45.4134ZM171.68 74V1.27273H200.374C205.89 1.27273 210.589 2.32623 214.472 4.43324C218.354 6.51657 221.313 9.41666 223.349 13.1335C225.409 16.8267 226.439 21.0881 226.439 25.9176C226.439 30.7472 225.397 35.0085 223.314 38.7017C221.231 42.3949 218.212 45.2713 214.259 47.331C210.329 49.3906 205.57 50.4205 199.983 50.4205H181.695V38.098H197.497C200.456 38.098 202.895 37.589 204.812 36.571C206.754 35.5294 208.198 34.0971 209.145 32.2741C210.116 30.4276 210.601 28.3087 210.601 25.9176C210.601 23.5028 210.116 21.3958 209.145 19.5966C208.198 17.7737 206.754 16.3651 204.812 15.3707C202.871 14.3527 200.409 13.8438 197.426 13.8438H187.057V74H171.68ZM275.88 22.1889C275.596 19.3243 274.376 17.099 272.222 15.5128C270.068 13.9266 267.144 13.1335 263.451 13.1335C260.941 13.1335 258.822 13.4886 257.094 14.1989C255.366 14.8854 254.04 15.8442 253.117 17.0753C252.217 18.3063 251.767 19.7031 251.767 21.2656C251.72 22.5677 251.992 23.7041 252.584 24.6747C253.2 25.6454 254.04 26.4858 255.105 27.196C256.171 27.8826 257.402 28.4863 258.799 29.0071C260.195 29.5043 261.687 29.9304 263.273 30.2855L269.807 31.848C272.98 32.5582 275.891 33.5052 278.543 34.6889C281.194 35.8726 283.491 37.3286 285.432 39.0568C287.373 40.785 288.877 42.821 289.942 45.1648C291.031 47.5085 291.587 50.1955 291.611 53.2259C291.587 57.6766 290.451 61.5355 288.202 64.8026C285.977 68.0459 282.757 70.5672 278.543 72.3665C274.353 74.142 269.298 75.0298 263.38 75.0298C257.508 75.0298 252.395 74.1302 248.039 72.331C243.706 70.5317 240.321 67.8684 237.882 64.3409C235.468 60.7898 234.201 56.3982 234.083 51.1662H248.962C249.128 53.6046 249.826 55.6406 251.057 57.2741C252.312 58.884 253.981 60.1032 256.064 60.9318C258.171 61.7367 260.551 62.1392 263.202 62.1392C265.806 62.1392 268.067 61.7604 269.985 61.0028C271.926 60.2453 273.429 59.1918 274.495 57.8423C275.56 56.4929 276.093 54.9422 276.093 53.1903C276.093 51.5568 275.607 50.1837 274.637 49.071C273.69 47.9583 272.293 47.0114 270.446 46.2301C268.623 45.4489 266.386 44.7386 263.735 44.0994L255.816 42.1108C249.684 40.6193 244.843 38.2874 241.292 35.1151C237.74 31.9427 235.977 27.6695 236 22.2955C235.977 17.892 237.149 14.045 239.516 10.7543C241.907 7.46354 245.186 4.89489 249.353 3.04829C253.519 1.2017 258.254 0.278406 263.557 0.278406C268.955 0.278406 273.666 1.2017 277.691 3.04829C281.739 4.89489 284.888 7.46354 287.137 10.7543C289.386 14.045 290.546 17.8565 290.617 22.1889H275.88Z" fill="#3DB54B"/>
</svg>
